<?xml version="1.0" encoding="UTF-8" standalone="no"?><svg xmlns="http://www.w3.org/2000/svg" xmlns:xlink="http://www.w3.org/1999/xlink" style="isolation:isolate" viewBox="0 0 240 285" width="240pt" height="285pt"><defs><clipPath id="_clipPath_8PEOLKrQZWXd6YdUyXgnohL0SzJM2YtN"><rect width="240" height="285"/></clipPath></defs><g clip-path="url(#_clipPath_8PEOLKrQZWXd6YdUyXgnohL0SzJM2YtN)"><g><g><path d=" M 210.966 37.724 C 215.153 34.115 217.541 28.847 217.496 23.319 C 217.45 22.399 216.785 21.629 215.883 21.448 C 214.999 21.272 214.111 21.732 213.745 22.555 C 213.737 22.573 212.633 24.389 207.76 25.921 C 201.031 12.132 185.373 5.166 170.626 9.4 C 168.531 4.834 169.086 2.804 169.079 2.801 L 169.079 2.801 C 169.527 1.799 169.079 0.623 168.077 0.174 C 167.403 -0.128 166.617 -0.032 166.036 0.425 C 161.901 4.094 159.589 9.395 159.712 14.922 C 145.839 25.704 143.334 45.692 154.116 59.565 C 164.899 73.438 184.886 75.943 198.76 65.161 C 202.914 61.931 206.203 57.722 208.332 52.909 C 210.449 48.142 211.354 42.925 210.966 37.724 Z " fill="rgb(244,67,54)"/><g><path d=" M 172.122 19.764 C 171.728 18.739 170.578 18.227 169.553 18.621 C 165.426 20.125 163.299 24.69 164.803 28.817 C 166.307 32.944 170.872 35.071 174.999 33.567 C 175.086 33.535 175.172 33.502 175.257 33.468 C 176.282 33.074 176.794 31.924 176.4 30.899 L 172.122 19.764 Z " fill="rgb(38,50,56)"/><path d=" M 201.629 32.891 C 201.235 31.866 200.085 31.355 199.06 31.748 L 187.925 36.026 C 186.9 36.42 186.389 37.57 186.782 38.595 C 188.286 42.722 192.851 44.849 196.978 43.345 C 201.106 41.841 203.232 37.276 201.728 33.149 C 201.697 33.063 201.664 32.977 201.629 32.891 L 201.629 32.891 Z " fill="rgb(38,50,56)"/></g><path d=" M 197.992 53.532 C 197.852 52.922 197.433 52.413 196.861 52.159 L 158.427 35.06 C 157.423 34.614 156.248 35.065 155.802 36.069 C 155.728 36.236 155.677 36.412 155.651 36.593 C 153.794 49.639 162.864 61.721 175.91 63.579 C 184.091 64.744 192.292 61.593 197.588 55.25 C 197.983 54.772 198.133 54.136 197.992 53.532 Z " fill="rgb(250,250,250)"/><path d=" M 205.845 30.127 C 205.382 29.921 205.015 29.546 204.819 29.078 C 199.163 15.629 184.026 8.895 170.25 13.699 C 169.224 14.09 168.075 13.576 167.683 12.55 C 167.292 11.524 167.806 10.375 168.832 9.984 C 168.867 9.97 168.902 9.958 168.938 9.947 C 184.698 4.446 202.018 12.151 208.484 27.54 C 208.909 28.553 208.432 29.718 207.419 30.143 C 206.914 30.354 206.345 30.348 205.845 30.127 L 205.845 30.127 Z " fill="rgb(0,0,0)"/><path d=" M 166.332 69.045 C 150.294 61.94 143.051 43.178 150.156 27.139 C 152.429 22.009 156.019 17.573 160.563 14.282 C 161.478 13.674 162.712 13.924 163.319 14.839 C 163.891 15.7 163.707 16.855 162.898 17.497 C 150.451 26.522 147.678 43.928 156.704 56.375 C 165.729 68.821 183.136 71.594 195.582 62.569 C 199.563 59.681 202.709 55.791 204.698 51.293 C 206.676 46.838 207.441 41.939 206.916 37.093 C 206.846 35.997 207.678 35.052 208.774 34.983 C 209.805 34.917 210.715 35.652 210.867 36.674 C 212.727 54.118 200.094 69.766 182.651 71.626 C 177.079 72.22 171.449 71.33 166.332 69.045 Z " fill="rgb(0,0,0)"/><path d=" M 169.172 33.311 C 165.159 31.525 163.354 26.823 165.141 22.81 C 165.998 20.884 167.585 19.377 169.553 18.621 C 170.578 18.227 171.728 18.739 172.122 19.764 L 176.4 30.899 C 176.794 31.924 176.282 33.074 175.257 33.468 C 173.289 34.227 171.099 34.171 169.172 33.311 Z  M 169.314 23.542 C 169.096 23.812 168.913 24.11 168.772 24.428 C 167.879 26.434 168.781 28.785 170.788 29.678 C 171.106 29.819 171.441 29.919 171.785 29.973 L 169.314 23.542 Z " fill="rgb(0,0,0)"/><path d=" M 190.973 43.01 C 189.044 42.156 187.536 40.568 186.781 38.599 C 186.387 37.574 186.899 36.424 187.924 36.03 L 199.059 31.752 C 200.084 31.358 201.234 31.87 201.628 32.895 C 203.199 36.997 201.148 41.596 197.047 43.168 C 195.081 43.921 192.897 43.864 190.973 43.01 Z  M 191.702 38.838 C 193.408 40.22 195.913 39.957 197.295 38.251 C 197.735 37.707 198.024 37.058 198.133 36.367 L 191.702 38.838 Z " fill="rgb(0,0,0)"/><path d=" M 169.565 61.778 C 159.83 57.425 154.155 47.151 155.651 36.593 C 155.808 35.506 156.816 34.752 157.903 34.908 C 158.084 34.934 158.26 34.985 158.427 35.06 L 196.869 52.162 C 197.872 52.609 198.323 53.784 197.876 54.787 C 197.802 54.954 197.705 55.11 197.588 55.25 C 190.748 63.431 179.317 66.094 169.565 61.778 Z  M 159.383 39.837 C 159.308 50.819 168.15 59.781 179.131 59.856 C 184.142 59.89 188.981 58.031 192.68 54.651 L 159.383 39.837 Z " fill="rgb(0,0,0)"/><path d=" M 160.921 17.714 C 160.234 17.41 159.777 16.746 159.739 15.996 C 159.295 10.107 161.625 4.349 166.039 0.426 C 166.906 -0.248 168.155 -0.093 168.83 0.774 C 169.28 1.352 169.376 2.131 169.079 2.801 L 169.079 2.801 C 169.079 2.801 168.412 5.277 171.356 10.9 C 171.865 11.873 171.489 13.075 170.516 13.585 C 169.543 14.094 168.341 13.718 167.832 12.745 L 167.832 12.745 C 166.889 10.993 166.136 9.146 165.588 7.233 C 164.174 9.856 163.525 12.823 163.715 15.797 C 163.77 16.894 162.926 17.828 161.829 17.883 C 161.517 17.899 161.206 17.841 160.921 17.714 L 160.921 17.714 Z " fill="rgb(0,0,0)"/><path d=" M 208.083 38.696 C 207.079 38.25 206.628 37.074 207.074 36.071 C 207.201 35.786 207.394 35.534 207.636 35.337 C 209.969 33.486 211.735 31.018 212.734 28.212 C 210.95 29.087 209.076 29.765 207.146 30.236 C 206.082 30.509 204.998 29.868 204.725 28.804 C 204.452 27.74 205.093 26.656 206.157 26.383 L 206.157 26.383 C 212.398 24.781 213.728 22.583 213.741 22.562 C 214.106 21.735 214.996 21.271 215.883 21.448 C 216.784 21.627 217.45 22.394 217.5 23.312 C 217.542 29.217 214.825 34.803 210.153 38.416 C 209.572 38.893 208.77 39.002 208.083 38.696 Z " fill="rgb(0,0,0)"/></g><g><g><g><path d=" M 204.888 52.383 L 204.888 102.692 C 204.888 159.578 167.603 209.735 113.13 226.128 C 85.891 217.929 62.952 201.294 46.822 179.595 C 30.692 157.896 21.372 131.133 21.372 102.692 L 21.372 52.383 L 23.394 52.383 C 45.199 52.383 65.267 40.493 75.747 21.372 L 150.513 21.372 C 155.755 30.93 163.389 38.687 172.441 44.048 C 181.494 49.409 191.965 52.383 202.866 52.383 L 204.888 52.383 Z " fill="rgb(83,94,126)"/></g><g><path d=" M 204.888 52.383 L 204.888 102.692 C 204.888 159.578 167.603 209.735 113.13 226.128 L 113.13 21.372 L 150.513 21.372 C 155.755 30.93 163.389 38.687 172.441 44.048 C 181.494 49.409 191.965 52.383 202.866 52.383 L 204.888 52.383 Z " fill="rgb(66,71,101)"/></g><g><g><path d=" M 204.888 46.011 L 202.866 46.011 C 183.384 46.011 165.462 35.395 156.099 18.309 C 154.982 16.27 152.841 15 150.513 15 L 75.747 15 C 73.419 15 71.278 16.27 70.161 18.309 C 60.798 35.395 42.876 46.011 23.394 46.011 L 21.372 46.011 C 17.855 46.011 15 48.865 15 52.383 L 15 102.692 C 15 131.983 24.235 159.888 41.712 183.397 C 59.184 206.901 83.245 223.792 111.295 232.228 C 111.894 232.411 112.51 232.5 113.13 232.5 C 113.75 232.5 114.366 232.411 114.965 232.228 C 143.015 223.792 167.076 206.901 184.548 183.397 C 202.025 159.888 211.26 131.983 211.26 102.692 L 211.26 52.383 C 211.26 48.865 208.405 46.011 204.888 46.011 L 204.888 46.011 Z  M 198.516 102.692 C 198.516 156.532 164.285 203.214 113.13 219.458 C 61.975 203.214 27.744 156.532 27.744 102.692 L 27.744 58.61 C 48.908 57.221 68.135 45.739 79.396 27.744 L 146.864 27.744 C 158.125 45.739 177.352 57.221 198.516 58.61 L 198.516 102.692 Z " fill="rgb(66,71,101)"/></g></g><g><path d=" M 211.26 52.383 L 211.26 102.692 C 211.26 131.983 202.025 159.888 184.548 183.397 C 167.076 206.901 143.015 223.792 114.965 232.228 C 114.366 232.411 113.75 232.5 113.13 232.5 L 113.13 219.458 C 164.285 203.214 198.516 156.532 198.516 102.692 L 198.516 58.61 C 177.352 57.221 158.125 45.739 146.864 27.744 L 113.13 27.744 L 113.13 15 L 150.513 15 C 152.841 15 154.982 16.27 156.099 18.309 C 165.462 35.395 183.384 46.011 202.866 46.011 L 204.888 46.011 C 208.405 46.011 211.26 48.865 211.26 52.383 L 211.26 52.383 Z " fill="rgb(50,50,77)"/></g><g><path d=" M 48.568 79.146 C 45.049 79.146 42.194 76.293 42.194 72.773 C 42.194 69.254 45.045 66.401 48.564 66.401 L 48.568 66.401 C 52.088 66.401 54.94 69.254 54.94 72.773 C 54.94 76.293 52.088 79.146 48.568 79.146 L 48.568 79.146 Z " fill="rgb(237,242,254)"/></g><g><path d=" M 177.709 79.146 C 174.19 79.146 171.334 76.293 171.334 72.773 C 171.334 69.254 174.185 66.401 177.704 66.401 L 177.709 66.401 C 181.228 66.401 184.081 69.254 184.081 72.773 C 184.081 76.293 181.228 79.146 177.709 79.146 Z " fill="rgb(220,228,254)"/></g></g><g filter="url(#wT8mjXmUSLtYrAg5r7aySwEECi6sFdu8)"><path d=" M 127.232 123.758 L 79.89 169.217 C 77.673 167.706 76.357 165.193 76.38 162.515 L 76.38 85.001 C 76.357 82.324 77.673 79.811 79.89 78.3 L 127.232 123.758 Z " fill="rgb(187,225,73)"/><path d=" M 145.051 106.627 L 128.485 122.505 L 81.144 77.047 C 81.322 76.909 81.508 76.781 81.7 76.662 C 84.202 75.15 87.327 75.101 89.876 76.534 L 145.051 106.627 Z " fill="rgb(76,175,80)"/><path d=" M 166.379 123.758 C 166.41 126.781 164.763 129.573 162.099 131.015 L 146.304 139.637 L 129.739 123.758 L 146.304 107.88 L 162.099 116.502 C 164.763 117.944 166.41 120.736 166.379 123.758 Z " fill="rgb(86,153,94)"/><path d=" M 145.051 140.89 L 89.876 170.982 C 87.322 172.393 84.208 172.344 81.7 170.854 C 81.508 170.736 81.322 170.608 81.144 170.47 L 128.485 125.012 L 145.051 140.89 Z " fill="rgb(76,175,80)"/></g><defs><filter id="wT8mjXmUSLtYrAg5r7aySwEECi6sFdu8" x="-200%" y="-200%" width="400%" height="400%" filterUnits="objectBoundingBox" color-interpolation-filters="sRGB"><feGaussianBlur xmlns="http://www.w3.org/2000/svg" in="SourceGraphic" stdDeviation="2.146804531419514"/><feOffset xmlns="http://www.w3.org/2000/svg" dx="0" dy="0" result="pf_100_offsetBlur"/><feFlood xmlns="http://www.w3.org/2000/svg" flood-color="#000000" flood-opacity="0.65"/><feComposite xmlns="http://www.w3.org/2000/svg" in2="pf_100_offsetBlur" operator="in" result="pf_100_dropShadow"/><feBlend xmlns="http://www.w3.org/2000/svg" in="SourceGraphic" in2="pf_100_dropShadow" mode="normal"/></filter></defs></g><path d=" M 62.608 264.746 L 62.608 264.746 L 62.608 264.746 Q 62.608 267.668 60.487 269.328 L 60.487 269.328 L 60.487 269.328 Q 58.365 270.989 54.675 270.989 L 54.675 270.989 L 54.675 270.989 Q 52.891 270.989 51.308 270.696 L 51.308 270.696 L 51.308 270.696 Q 49.724 270.404 48.617 269.851 L 48.617 269.851 L 48.617 266.714 L 48.617 266.714 Q 49.847 267.268 51.508 267.714 L 51.508 267.714 L 51.508 267.714 Q 53.168 268.16 54.89 268.16 L 54.89 268.16 L 54.89 268.16 Q 57.104 268.16 58.211 267.299 L 58.211 267.299 L 58.211 267.299 Q 59.318 266.438 59.318 264.992 L 59.318 264.992 L 59.318 264.992 Q 59.318 263.978 58.811 263.286 L 58.811 263.286 L 58.811 263.286 Q 58.304 262.594 57.227 262.01 L 57.227 262.01 L 57.227 262.01 Q 56.151 261.425 54.398 260.718 L 54.398 260.718 L 54.398 260.718 Q 52.768 260.103 51.523 259.273 L 51.523 259.273 L 51.523 259.273 Q 50.278 258.443 49.57 257.213 L 49.57 257.213 L 49.57 257.213 Q 48.863 255.983 48.863 254.199 L 48.863 254.199 L 48.863 254.199 Q 48.863 251.493 50.831 249.956 L 50.831 249.956 L 50.831 249.956 Q 52.799 248.418 55.997 248.418 L 55.997 248.418 L 55.997 248.418 Q 57.781 248.418 59.303 248.772 L 59.303 248.772 L 59.303 248.772 Q 60.825 249.125 62.209 249.74 L 62.209 249.74 L 61.163 252.477 L 61.163 252.477 Q 59.903 251.954 58.596 251.616 L 58.596 251.616 L 58.596 251.616 Q 57.289 251.278 55.905 251.278 L 55.905 251.278 L 55.905 251.278 Q 54.091 251.278 53.137 252.077 L 53.137 252.077 L 53.137 252.077 Q 52.184 252.877 52.184 254.168 L 52.184 254.168 L 52.184 254.168 Q 52.184 255.183 52.646 255.875 L 52.646 255.875 L 52.646 255.875 Q 53.107 256.567 54.122 257.12 L 54.122 257.12 L 54.122 257.12 Q 55.136 257.674 56.797 258.35 L 56.797 258.35 L 56.797 258.35 Q 58.642 259.088 59.949 259.903 L 59.949 259.903 L 59.949 259.903 Q 61.256 260.718 61.932 261.871 L 61.932 261.871 L 61.932 261.871 Q 62.608 263.024 62.608 264.746 Z  M 72.971 253.799 L 72.971 253.799 L 72.971 253.799 Q 76.077 253.799 77.63 255.168 L 77.63 255.168 L 77.63 255.168 Q 79.183 256.536 79.183 259.457 L 79.183 259.457 L 79.183 270.681 L 76.877 270.681 L 76.231 268.375 L 76.108 268.375 L 76.108 268.375 Q 75.032 269.728 73.848 270.358 L 73.848 270.358 L 73.848 270.358 Q 72.664 270.989 70.573 270.989 L 70.573 270.989 L 70.573 270.989 Q 68.328 270.989 66.852 269.774 L 66.852 269.774 L 66.852 269.774 Q 65.376 268.559 65.376 265.976 L 65.376 265.976 L 65.376 265.976 Q 65.376 263.455 67.283 262.133 L 67.283 262.133 L 67.283 262.133 Q 69.189 260.81 73.156 260.687 L 73.156 260.687 L 75.985 260.595 L 75.985 259.673 L 75.985 259.673 Q 75.985 257.858 75.154 257.105 L 75.154 257.105 L 75.154 257.105 Q 74.324 256.352 72.818 256.352 L 72.818 256.352 L 72.818 256.352 Q 71.557 256.352 70.388 256.721 L 70.388 256.721 L 70.388 256.721 Q 69.22 257.09 68.143 257.612 L 68.143 257.612 L 67.098 255.245 L 67.098 255.245 Q 68.267 254.63 69.789 254.214 L 69.789 254.214 L 69.789 254.214 Q 71.311 253.799 72.971 253.799 Z  M 75.954 262.717 L 73.74 262.778 L 73.74 262.778 Q 70.911 262.901 69.819 263.716 L 69.819 263.716 L 69.819 263.716 Q 68.728 264.531 68.728 266.007 L 68.728 266.007 L 68.728 266.007 Q 68.728 267.299 69.497 267.883 L 69.497 267.883 L 69.497 267.883 Q 70.265 268.467 71.495 268.467 L 71.495 268.467 L 71.495 268.467 Q 73.402 268.467 74.678 267.391 L 74.678 267.391 L 74.678 267.391 Q 75.954 266.315 75.954 264.162 L 75.954 264.162 L 75.954 262.717 L 75.954 262.717 Z  M 92.282 254.107 L 92.282 256.598 L 88.193 256.598 L 88.193 270.681 L 84.933 270.681 L 84.933 256.598 L 82.135 256.598 L 82.135 255.06 L 84.933 254.045 L 84.933 253 L 84.933 253 Q 84.933 249.833 86.394 248.495 L 86.394 248.495 L 86.394 248.495 Q 87.854 247.157 90.468 247.157 L 90.468 247.157 L 90.468 247.157 Q 91.544 247.157 92.436 247.342 L 92.436 247.342 L 92.436 247.342 Q 93.328 247.526 93.943 247.742 L 93.943 247.742 L 93.113 250.232 L 93.113 250.232 Q 92.59 250.079 91.959 249.94 L 91.959 249.94 L 91.959 249.94 Q 91.329 249.802 90.622 249.802 L 90.622 249.802 L 90.622 249.802 Q 88.193 249.802 88.193 253.031 L 88.193 253.031 L 88.193 254.107 L 92.282 254.107 L 92.282 254.107 Z  M 101.692 253.799 L 101.692 253.799 L 101.692 253.799 Q 104.951 253.799 106.827 255.813 L 106.827 255.813 L 106.827 255.813 Q 108.703 257.828 108.703 261.302 L 108.703 261.302 L 108.703 263.086 L 97.571 263.086 L 97.571 263.086 Q 97.633 265.638 98.909 266.991 L 98.909 266.991 L 98.909 266.991 Q 100.185 268.344 102.491 268.344 L 102.491 268.344 L 102.491 268.344 Q 104.09 268.344 105.336 268.052 L 105.336 268.052 L 105.336 268.052 Q 106.581 267.76 107.903 267.176 L 107.903 267.176 L 107.903 269.882 L 107.903 269.882 Q 106.643 270.435 105.382 270.712 L 105.382 270.712 L 105.382 270.712 Q 104.121 270.989 102.368 270.989 L 102.368 270.989 L 102.368 270.989 Q 99.939 270.989 98.109 270.035 L 98.109 270.035 L 98.109 270.035 Q 96.28 269.082 95.25 267.191 L 95.25 267.191 L 95.25 267.191 Q 94.22 265.3 94.22 262.532 L 94.22 262.532 L 94.22 262.532 Q 94.22 259.734 95.157 257.797 L 95.157 257.797 L 95.157 257.797 Q 96.095 255.86 97.771 254.829 L 97.771 254.829 L 97.771 254.829 Q 99.447 253.799 101.692 253.799 Z  M 101.692 256.321 L 101.692 256.321 L 101.692 256.321 Q 99.939 256.321 98.878 257.459 L 98.878 257.459 L 98.878 257.459 Q 97.817 258.596 97.633 260.687 L 97.633 260.687 L 105.443 260.687 L 105.443 260.687 Q 105.413 258.75 104.505 257.535 L 104.505 257.535 L 104.505 257.535 Q 103.598 256.321 101.692 256.321 Z  M 118.727 268.344 L 118.727 268.344 L 118.727 268.344 Q 119.373 268.344 120.05 268.236 L 120.05 268.236 L 120.05 268.236 Q 120.726 268.129 121.218 267.944 L 121.218 267.944 L 121.218 270.404 L 121.218 270.404 Q 120.665 270.65 119.788 270.819 L 119.788 270.819 L 119.788 270.819 Q 118.912 270.989 118.02 270.989 L 118.02 270.989 L 118.02 270.989 Q 116.667 270.989 115.529 270.527 L 115.529 270.527 L 115.529 270.527 Q 114.392 270.066 113.73 268.928 L 113.73 268.928 L 113.73 268.928 Q 113.069 267.791 113.069 265.761 L 113.069 265.761 L 113.069 256.598 L 110.763 256.598 L 110.763 255.122 L 113.192 253.892 L 114.33 250.386 L 116.329 250.386 L 116.329 254.107 L 121.064 254.107 L 121.064 256.598 L 116.329 256.598 L 116.329 265.7 L 116.329 265.7 Q 116.329 267.053 116.99 267.698 L 116.99 267.698 L 116.99 267.698 Q 117.651 268.344 118.727 268.344 Z  M 128.659 270.681 L 122.018 254.107 L 125.523 254.107 L 128.967 263.516 L 128.967 263.516 Q 129.367 264.593 129.659 265.592 L 129.659 265.592 L 129.659 265.592 Q 129.951 266.591 130.105 267.545 L 130.105 267.545 L 130.228 267.545 L 130.228 267.545 Q 130.382 266.745 130.704 265.669 L 130.704 265.669 L 130.704 265.669 Q 131.027 264.593 131.427 263.486 L 131.427 263.486 L 134.687 254.107 L 138.192 254.107 L 131.089 272.926 L 131.089 272.926 Q 130.197 275.324 128.706 276.693 L 128.706 276.693 L 128.706 276.693 Q 127.214 278.061 124.816 278.061 L 124.816 278.061 L 124.816 278.061 Q 124.047 278.061 123.493 277.984 L 123.493 277.984 L 123.493 277.984 Q 122.94 277.907 122.54 277.815 L 122.54 277.815 L 122.54 275.232 L 122.54 275.232 Q 122.848 275.294 123.34 275.355 L 123.34 275.355 L 123.34 275.355 Q 123.832 275.417 124.355 275.417 L 124.355 275.417 L 124.355 275.417 Q 125.769 275.417 126.63 274.602 L 126.63 274.602 L 126.63 274.602 Q 127.491 273.787 127.983 272.465 L 127.983 272.465 L 128.659 270.681 L 128.659 270.681 Z  M 159.133 248.726 L 159.133 270.681 L 155.105 270.681 L 144.004 252.938 L 143.881 252.938 L 143.881 252.938 Q 143.942 254.168 144.034 255.752 L 144.034 255.752 L 144.034 255.752 Q 144.127 257.336 144.127 258.996 L 144.127 258.996 L 144.127 270.681 L 141.113 270.681 L 141.113 248.726 L 145.111 248.726 L 156.181 266.376 L 156.273 266.376 L 156.273 266.376 Q 156.242 265.73 156.196 264.746 L 156.196 264.746 L 156.196 264.746 Q 156.15 263.762 156.119 262.64 L 156.119 262.64 L 156.119 262.64 Q 156.089 261.518 156.058 260.534 L 156.058 260.534 L 156.058 248.726 L 159.133 248.726 L 159.133 248.726 Z  M 171.125 253.799 L 171.125 253.799 L 171.125 253.799 Q 174.385 253.799 176.261 255.813 L 176.261 255.813 L 176.261 255.813 Q 178.136 257.828 178.136 261.302 L 178.136 261.302 L 178.136 263.086 L 167.005 263.086 L 167.005 263.086 Q 167.066 265.638 168.342 266.991 L 168.342 266.991 L 168.342 266.991 Q 169.619 268.344 171.925 268.344 L 171.925 268.344 L 171.925 268.344 Q 173.524 268.344 174.769 268.052 L 174.769 268.052 L 174.769 268.052 Q 176.015 267.76 177.337 267.176 L 177.337 267.176 L 177.337 269.882 L 177.337 269.882 Q 176.076 270.435 174.815 270.712 L 174.815 270.712 L 174.815 270.712 Q 173.555 270.989 171.802 270.989 L 171.802 270.989 L 171.802 270.989 Q 169.373 270.989 167.543 270.035 L 167.543 270.035 L 167.543 270.035 Q 165.713 269.082 164.683 267.191 L 164.683 267.191 L 164.683 267.191 Q 163.653 265.3 163.653 262.532 L 163.653 262.532 L 163.653 262.532 Q 163.653 259.734 164.591 257.797 L 164.591 257.797 L 164.591 257.797 Q 165.529 255.86 167.205 254.829 L 167.205 254.829 L 167.205 254.829 Q 168.881 253.799 171.125 253.799 Z  M 171.125 256.321 L 171.125 256.321 L 171.125 256.321 Q 169.373 256.321 168.312 257.459 L 168.312 257.459 L 168.312 257.459 Q 167.251 258.596 167.066 260.687 L 167.066 260.687 L 174.877 260.687 L 174.877 260.687 Q 174.846 258.75 173.939 257.535 L 173.939 257.535 L 173.939 257.535 Q 173.032 256.321 171.125 256.321 Z  M 188.161 268.344 L 188.161 268.344 L 188.161 268.344 Q 188.807 268.344 189.483 268.236 L 189.483 268.236 L 189.483 268.236 Q 190.159 268.129 190.652 267.944 L 190.652 267.944 L 190.652 270.404 L 190.652 270.404 Q 190.098 270.65 189.222 270.819 L 189.222 270.819 L 189.222 270.819 Q 188.345 270.989 187.454 270.989 L 187.454 270.989 L 187.454 270.989 Q 186.101 270.989 184.963 270.527 L 184.963 270.527 L 184.963 270.527 Q 183.825 270.066 183.164 268.928 L 183.164 268.928 L 183.164 268.928 Q 182.503 267.791 182.503 265.761 L 182.503 265.761 L 182.503 256.598 L 180.197 256.598 L 180.197 255.122 L 182.626 253.892 L 183.764 250.386 L 185.762 250.386 L 185.762 254.107 L 190.498 254.107 L 190.498 256.598 L 185.762 256.598 L 185.762 265.7 L 185.762 265.7 Q 185.762 267.053 186.423 267.698 L 186.423 267.698 L 186.423 267.698 Q 187.085 268.344 188.161 268.344 Z " fill="rgb(66,71,101)"/></g></g></svg>
