<svg xmlns="http://www.w3.org/2000/svg" version="1.1" xmlns:xlink="http://www.w3.org/1999/xlink" xmlns:svgjs="http://svgjs.com/svgjs" width="1440" height="560" preserveAspectRatio="none" viewBox="0 0 1440 560">
    <g mask="url(&quot;#SvgjsMask1150&quot;)" fill="none">
        <g mask="url(&quot;#SvgjsMask1151&quot;)">
            <path d="M175.5 292.5L214.5 253.5M97.5 292.5L136.5 253.5L175.5 253.5L214.5 214.5M253.5 292.5L292.5 253.5L331.5 253.5L370.5 253.5M-19.5 292.5L19.5 292.5L58.5 292.5L97.5 292.5L136.5 292.5L175.5 292.5L214.5 292.5L253.5 292.5L292.5 292.5L331.5 292.5" stroke="rgba(72, 92, 151, 1)" stroke-width="6.5"></path>
            <path d="M321.75 292.5 a9.75 9.75 0 1 0 19.5 0 a9.75 9.75 0 1 0 -19.5 0zM204.75 253.5 a9.75 9.75 0 1 0 19.5 0 a9.75 9.75 0 1 0 -19.5 0zM204.75 214.5 a9.75 9.75 0 1 0 19.5 0 a9.75 9.75 0 1 0 -19.5 0zM360.75 253.5 a9.75 9.75 0 1 0 19.5 0 a9.75 9.75 0 1 0 -19.5 0z" fill="rgba(72, 92, 151, 1)"></path>
            <path d="M97.5 175.5L136.5 214.5L175.5 214.5M58.5 214.5L97.5 214.5M-19.5 253.5L19.5 253.5L58.5 214.5L97.5 175.5L136.5 175.5L175.5 175.5L214.5 175.5L253.5 175.5" stroke="rgba(72, 92, 151, 1)" stroke-width="6.5"></path>
            <path d="M243.75 175.5 a9.75 9.75 0 1 0 19.5 0 a9.75 9.75 0 1 0 -19.5 0zM165.75 214.5 a9.75 9.75 0 1 0 19.5 0 a9.75 9.75 0 1 0 -19.5 0zM87.75 214.5 a9.75 9.75 0 1 0 19.5 0 a9.75 9.75 0 1 0 -19.5 0z" fill="rgba(72, 92, 151, 1)"></path>
            <path d="M175.5 331.5L214.5 370.5L253.5 370.5L292.5 409.5M331.5 331.5L370.5 370.5L409.5 370.5L448.5 370.5L487.5 370.5M448.5 331.5L487.5 292.5L526.5 253.5L565.5 253.5L604.5 253.5M526.5 331.5L565.5 370.5L604.5 370.5M-19.5 331.5L19.5 331.5L58.5 331.5L97.5 331.5L136.5 331.5L175.5 331.5L214.5 331.5L253.5 331.5L292.5 331.5L331.5 331.5L370.5 331.5L409.5 331.5L448.5 331.5L487.5 331.5L526.5 331.5L565.5 331.5" stroke="rgba(72, 92, 151, 1)" stroke-width="6.5"></path>
            <path d="M555.75 331.5 a9.75 9.75 0 1 0 19.5 0 a9.75 9.75 0 1 0 -19.5 0zM282.75 409.5 a9.75 9.75 0 1 0 19.5 0 a9.75 9.75 0 1 0 -19.5 0zM477.75 370.5 a9.75 9.75 0 1 0 19.5 0 a9.75 9.75 0 1 0 -19.5 0zM594.75 253.5 a9.75 9.75 0 1 0 19.5 0 a9.75 9.75 0 1 0 -19.5 0zM594.75 370.5 a9.75 9.75 0 1 0 19.5 0 a9.75 9.75 0 1 0 -19.5 0z" fill="rgba(72, 92, 151, 1)"></path>
            <path d="M292.5 136.5L331.5 175.5M-19.5 214.5L19.5 214.5L58.5 175.5L97.5 136.5L136.5 136.5L175.5 136.5L214.5 136.5L253.5 136.5L292.5 136.5L331.5 136.5L370.5 136.5" stroke="rgba(72, 92, 151, 1)" stroke-width="6.5"></path>
            <path d="M360.75 136.5 a9.75 9.75 0 1 0 19.5 0 a9.75 9.75 0 1 0 -19.5 0zM321.75 175.5 a9.75 9.75 0 1 0 19.5 0 a9.75 9.75 0 1 0 -19.5 0z" fill="rgba(72, 92, 151, 1)"></path>
            <path d="M19.5 370.5L58.5 409.5M97.5 370.5L136.5 370.5M175.5 409.5L214.5 448.5L253.5 448.5L292.5 448.5L331.5 448.5M-19.5 370.5L19.5 370.5L58.5 370.5L97.5 370.5L136.5 409.5L175.5 409.5L214.5 409.5L253.5 409.5" stroke="rgba(0, 153, 153, 1)" stroke-width="6.5"></path>
            <path d="M243.75 409.5 a9.75 9.75 0 1 0 19.5 0 a9.75 9.75 0 1 0 -19.5 0zM48.75 409.5 a9.75 9.75 0 1 0 19.5 0 a9.75 9.75 0 1 0 -19.5 0zM126.75 370.5 a9.75 9.75 0 1 0 19.5 0 a9.75 9.75 0 1 0 -19.5 0zM321.75 448.5 a9.75 9.75 0 1 0 19.5 0 a9.75 9.75 0 1 0 -19.5 0z" fill="rgba(0, 153, 153, 1)"></path>
            <path d="M-19.5 175.5L19.5 175.5L58.5 136.5L97.5 97.5L136.5 97.5L175.5 97.5L214.5 97.5L253.5 97.5L292.5 97.5L331.5 97.5L370.5 97.5L409.5 97.5L448.5 97.5" stroke="rgba(0, 153, 153, 1)" stroke-width="6.5"></path>
            <path d="M438.75 97.5 a9.75 9.75 0 1 0 19.5 0 a9.75 9.75 0 1 0 -19.5 0z" fill="rgba(0, 153, 153, 1)"></path>
        </g>
    </g>
    <defs>
        <mask id="SvgjsMask1150">
            <rect width="1440" height="560" fill="#ffffff"></rect>
        </mask>
        <mask id="SvgjsMask1151">
            <rect width="1440" height="560" fill="white"></rect>
            <path d="M326.62 292.5 a4.88 4.88 0 1 0 9.76 0 a4.88 4.88 0 1 0 -9.76 0zM209.62 253.5 a4.88 4.88 0 1 0 9.76 0 a4.88 4.88 0 1 0 -9.76 0zM209.62 214.5 a4.88 4.88 0 1 0 9.76 0 a4.88 4.88 0 1 0 -9.76 0zM365.62 253.5 a4.88 4.88 0 1 0 9.76 0 a4.88 4.88 0 1 0 -9.76 0z" fill="black"></path>
            <path d="M248.62 175.5 a4.88 4.88 0 1 0 9.76 0 a4.88 4.88 0 1 0 -9.76 0zM170.62 214.5 a4.88 4.88 0 1 0 9.76 0 a4.88 4.88 0 1 0 -9.76 0zM92.62 214.5 a4.88 4.88 0 1 0 9.76 0 a4.88 4.88 0 1 0 -9.76 0z" fill="black"></path>
            <path d="M560.62 331.5 a4.88 4.88 0 1 0 9.76 0 a4.88 4.88 0 1 0 -9.76 0zM287.62 409.5 a4.88 4.88 0 1 0 9.76 0 a4.88 4.88 0 1 0 -9.76 0zM482.62 370.5 a4.88 4.88 0 1 0 9.76 0 a4.88 4.88 0 1 0 -9.76 0zM599.62 253.5 a4.88 4.88 0 1 0 9.76 0 a4.88 4.88 0 1 0 -9.76 0zM599.62 370.5 a4.88 4.88 0 1 0 9.76 0 a4.88 4.88 0 1 0 -9.76 0z" fill="black"></path>
            <path d="M365.62 136.5 a4.88 4.88 0 1 0 9.76 0 a4.88 4.88 0 1 0 -9.76 0zM326.62 175.5 a4.88 4.88 0 1 0 9.76 0 a4.88 4.88 0 1 0 -9.76 0z" fill="black"></path>
            <path d="M248.62 409.5 a4.88 4.88 0 1 0 9.76 0 a4.88 4.88 0 1 0 -9.76 0zM53.62 409.5 a4.88 4.88 0 1 0 9.76 0 a4.88 4.88 0 1 0 -9.76 0zM131.62 370.5 a4.88 4.88 0 1 0 9.76 0 a4.88 4.88 0 1 0 -9.76 0zM326.62 448.5 a4.88 4.88 0 1 0 9.76 0 a4.88 4.88 0 1 0 -9.76 0z" fill="black"></path>
            <path d="M443.62 97.5 a4.88 4.88 0 1 0 9.76 0 a4.88 4.88 0 1 0 -9.76 0z" fill="black"></path>
        </mask>
    </defs>
</svg>
