<svg xmlns="http://www.w3.org/2000/svg" version="1.1" xmlns:xlink="http://www.w3.org/1999/xlink" xmlns:svgjs="http://svgjs.com/svgjs" width="2500" height="2500" preserveAspectRatio="none" viewBox="0 0 2500 2500">
    <g mask="url(&quot;#SvgjsMask1086&quot;)" fill="none">
        <path d="M1075.14-469.74C835.08-52.63 1088.67 1304.78 648.38 1407.4 208.08 1510.02 54.06 836.41-205.15 807.4" stroke="rgba(51, 121, 194, 0.79)" stroke-width="2"></path>
        <path d="M1069.74-250.72C809.12 61.31 1185.54 1003.8 572.63 1297.66-40.28 1591.52-116.22 1985.53-421.59 2022.66" stroke="rgba(51, 121, 194, 0.79)" stroke-width="2"></path>
        <path d="M2117.39-20.14C1647.29 218.56 1596.12 1747.59 991.7 1763.21 387.29 1778.83 222.41 916.22-133.98 863.21" stroke="rgba(51, 121, 194, 0.79)" stroke-width="2"></path>
        <path d="M1179.82-365.77C902.72-97.99 1070.13 1061.09 623.86 1071.84 177.58 1082.59-147.98 311.96-488.07 271.84" stroke="rgba(51, 121, 194, 0.79)" stroke-width="2"></path>
        <path d="M1700.12-53.28C1465.76 35.08 1719.43 596.34 1091.69 742.68 463.95 889.02 267.21 1702.49-125.17 1767.68" stroke="rgba(51, 121, 194, 0.79)" stroke-width="2"></path>
    </g>
    <defs>
        <mask id="SvgjsMask1086">
            <rect width="2500" height="2500" fill="#ffffff"></rect>
        </mask>
    </defs>
</svg>
