<svg xmlns="http://www.w3.org/2000/svg" version="1.1" xmlns:xlink="http://www.w3.org/1999/xlink" xmlns:svgjs="http://svgjs.com/svgjs" width="1920" height="800" preserveAspectRatio="none" viewBox="0 0 1920 800">
    <g mask="url(&quot;#SvgjsMask1163&quot;)" fill="none">
        <path d="M166.86 729.8L216.23 758.3L216.23 815.3L166.86 843.8L117.5 815.3L117.5 758.3zM265.59 216.8L314.96 245.3L314.96 302.3L265.59 330.8L216.23 302.3L216.23 245.3zM314.96 -39.7L364.32 -11.2L364.32 45.8L314.96 74.3L265.59 45.8L265.59 -11.2zM364.32 45.8L413.69 74.3L413.69 131.3L364.32 159.8L314.96 131.3L314.96 74.3zM314.96 131.3L364.32 159.8L364.32 216.8L314.96 245.3L265.59 216.8L265.59 159.8zM314.96 644.3L364.32 672.8L364.32 729.8L314.96 758.3L265.59 729.8L265.59 672.8zM512.42 131.3L561.78 159.8L561.78 216.8L512.42 245.3L463.05 216.8L463.05 159.8zM611.15 131.3L660.51 159.8L660.51 216.8L611.15 245.3L561.78 216.8L561.78 159.8zM660.51 216.8L709.88 245.3L709.88 302.3L660.51 330.8L611.15 302.3L611.15 245.3zM808.61 -39.7L857.97 -11.2L857.97 45.8L808.61 74.3L759.24 45.8L759.24 -11.2zM808.61 644.3L857.97 672.8L857.97 729.8L808.61 758.3L759.24 729.8L759.24 672.8zM907.34 -39.7L956.7 -11.2L956.7 45.8L907.34 74.3L857.97 45.8L857.97 -11.2zM956.7 558.8L1006.07 587.3L1006.07 644.3L956.7 672.8L907.34 644.3L907.34 587.3zM1006.07 -39.7L1055.43 -11.2L1055.43 45.8L1006.07 74.3L956.7 45.8L956.7 -11.2zM1006.07 131.3L1055.43 159.8L1055.43 216.8L1006.07 245.3L956.7 216.8L956.7 159.8zM1154.16 45.8L1203.53 74.3L1203.53 131.3L1154.16 159.8L1104.8 131.3L1104.8 74.3zM1104.8 302.3L1154.16 330.8L1154.16 387.8L1104.8 416.3L1055.43 387.8L1055.43 330.8zM1203.53 131.3L1252.89 159.8L1252.89 216.8L1203.53 245.3L1154.16 216.8L1154.16 159.8zM1302.26 -39.7L1351.62 -11.2L1351.62 45.8L1302.26 74.3L1252.89 45.8L1252.89 -11.2zM1450.35 45.8L1499.72 74.3L1499.72 131.3L1450.35 159.8L1400.99 131.3L1400.99 74.3zM1400.99 473.3L1450.35 501.8L1450.35 558.8L1400.99 587.3L1351.62 558.8L1351.62 501.8zM1549.08 45.8L1598.45 74.3L1598.45 131.3L1549.08 159.8L1499.72 131.3L1499.72 74.3zM1549.08 729.8L1598.45 758.3L1598.45 815.3L1549.08 843.8L1499.72 815.3L1499.72 758.3zM1598.45 131.3L1647.81 159.8L1647.81 216.8L1598.45 245.3L1549.08 216.8L1549.08 159.8zM1697.17 131.3L1746.54 159.8L1746.54 216.8L1697.17 245.3L1647.81 216.8L1647.81 159.8zM1697.17 473.3L1746.54 501.8L1746.54 558.8L1697.17 587.3L1647.81 558.8L1647.81 501.8zM1795.9 302.3L1845.27 330.8L1845.27 387.8L1795.9 416.3L1746.54 387.8L1746.54 330.8zM1845.27 729.8L1894.63 758.3L1894.63 815.3L1845.27 843.8L1795.9 815.3L1795.9 758.3zM1894.63 473.3L1944 501.8L1944 558.8L1894.63 587.3L1845.27 558.8L1845.27 501.8zM1944 729.8L1993.36 758.3L1993.36 815.3L1944 843.8L1894.63 815.3L1894.63 758.3z" stroke="#03305d" stroke-width="2"></path>
        <path d="M161.16 729.8 a5.7 5.7 0 1 0 11.4 0 a5.7 5.7 0 1 0 -11.4 0zM210.53 758.3 a5.7 5.7 0 1 0 11.4 0 a5.7 5.7 0 1 0 -11.4 0zM210.53 815.3 a5.7 5.7 0 1 0 11.4 0 a5.7 5.7 0 1 0 -11.4 0zM161.16 843.8 a5.7 5.7 0 1 0 11.4 0 a5.7 5.7 0 1 0 -11.4 0zM111.8 815.3 a5.7 5.7 0 1 0 11.4 0 a5.7 5.7 0 1 0 -11.4 0zM111.8 758.3 a5.7 5.7 0 1 0 11.4 0 a5.7 5.7 0 1 0 -11.4 0zM259.89 216.8 a5.7 5.7 0 1 0 11.4 0 a5.7 5.7 0 1 0 -11.4 0zM309.26 245.3 a5.7 5.7 0 1 0 11.4 0 a5.7 5.7 0 1 0 -11.4 0zM309.26 302.3 a5.7 5.7 0 1 0 11.4 0 a5.7 5.7 0 1 0 -11.4 0zM259.89 330.8 a5.7 5.7 0 1 0 11.4 0 a5.7 5.7 0 1 0 -11.4 0zM210.53 302.3 a5.7 5.7 0 1 0 11.4 0 a5.7 5.7 0 1 0 -11.4 0zM210.53 245.3 a5.7 5.7 0 1 0 11.4 0 a5.7 5.7 0 1 0 -11.4 0zM309.26 -39.7 a5.7 5.7 0 1 0 11.4 0 a5.7 5.7 0 1 0 -11.4 0zM358.62 -11.2 a5.7 5.7 0 1 0 11.4 0 a5.7 5.7 0 1 0 -11.4 0zM358.62 45.8 a5.7 5.7 0 1 0 11.4 0 a5.7 5.7 0 1 0 -11.4 0zM309.26 74.3 a5.7 5.7 0 1 0 11.4 0 a5.7 5.7 0 1 0 -11.4 0zM259.89 45.8 a5.7 5.7 0 1 0 11.4 0 a5.7 5.7 0 1 0 -11.4 0zM259.89 -11.2 a5.7 5.7 0 1 0 11.4 0 a5.7 5.7 0 1 0 -11.4 0zM407.99 74.3 a5.7 5.7 0 1 0 11.4 0 a5.7 5.7 0 1 0 -11.4 0zM407.99 131.3 a5.7 5.7 0 1 0 11.4 0 a5.7 5.7 0 1 0 -11.4 0zM358.62 159.8 a5.7 5.7 0 1 0 11.4 0 a5.7 5.7 0 1 0 -11.4 0zM309.26 131.3 a5.7 5.7 0 1 0 11.4 0 a5.7 5.7 0 1 0 -11.4 0zM358.62 216.8 a5.7 5.7 0 1 0 11.4 0 a5.7 5.7 0 1 0 -11.4 0zM259.89 159.8 a5.7 5.7 0 1 0 11.4 0 a5.7 5.7 0 1 0 -11.4 0zM309.26 644.3 a5.7 5.7 0 1 0 11.4 0 a5.7 5.7 0 1 0 -11.4 0zM358.62 672.8 a5.7 5.7 0 1 0 11.4 0 a5.7 5.7 0 1 0 -11.4 0zM358.62 729.8 a5.7 5.7 0 1 0 11.4 0 a5.7 5.7 0 1 0 -11.4 0zM309.26 758.3 a5.7 5.7 0 1 0 11.4 0 a5.7 5.7 0 1 0 -11.4 0zM259.89 729.8 a5.7 5.7 0 1 0 11.4 0 a5.7 5.7 0 1 0 -11.4 0zM259.89 672.8 a5.7 5.7 0 1 0 11.4 0 a5.7 5.7 0 1 0 -11.4 0zM506.72 131.3 a5.7 5.7 0 1 0 11.4 0 a5.7 5.7 0 1 0 -11.4 0zM556.08 159.8 a5.7 5.7 0 1 0 11.4 0 a5.7 5.7 0 1 0 -11.4 0zM556.08 216.8 a5.7 5.7 0 1 0 11.4 0 a5.7 5.7 0 1 0 -11.4 0zM506.72 245.3 a5.7 5.7 0 1 0 11.4 0 a5.7 5.7 0 1 0 -11.4 0zM457.35 216.8 a5.7 5.7 0 1 0 11.4 0 a5.7 5.7 0 1 0 -11.4 0zM457.35 159.8 a5.7 5.7 0 1 0 11.4 0 a5.7 5.7 0 1 0 -11.4 0zM605.45 131.3 a5.7 5.7 0 1 0 11.4 0 a5.7 5.7 0 1 0 -11.4 0zM654.81 159.8 a5.7 5.7 0 1 0 11.4 0 a5.7 5.7 0 1 0 -11.4 0zM654.81 216.8 a5.7 5.7 0 1 0 11.4 0 a5.7 5.7 0 1 0 -11.4 0zM605.45 245.3 a5.7 5.7 0 1 0 11.4 0 a5.7 5.7 0 1 0 -11.4 0zM704.18 245.3 a5.7 5.7 0 1 0 11.4 0 a5.7 5.7 0 1 0 -11.4 0zM704.18 302.3 a5.7 5.7 0 1 0 11.4 0 a5.7 5.7 0 1 0 -11.4 0zM654.81 330.8 a5.7 5.7 0 1 0 11.4 0 a5.7 5.7 0 1 0 -11.4 0zM605.45 302.3 a5.7 5.7 0 1 0 11.4 0 a5.7 5.7 0 1 0 -11.4 0zM802.91 -39.7 a5.7 5.7 0 1 0 11.4 0 a5.7 5.7 0 1 0 -11.4 0zM852.27 -11.2 a5.7 5.7 0 1 0 11.4 0 a5.7 5.7 0 1 0 -11.4 0zM852.27 45.8 a5.7 5.7 0 1 0 11.4 0 a5.7 5.7 0 1 0 -11.4 0zM802.91 74.3 a5.7 5.7 0 1 0 11.4 0 a5.7 5.7 0 1 0 -11.4 0zM753.54 45.8 a5.7 5.7 0 1 0 11.4 0 a5.7 5.7 0 1 0 -11.4 0zM753.54 -11.2 a5.7 5.7 0 1 0 11.4 0 a5.7 5.7 0 1 0 -11.4 0zM802.91 644.3 a5.7 5.7 0 1 0 11.4 0 a5.7 5.7 0 1 0 -11.4 0zM852.27 672.8 a5.7 5.7 0 1 0 11.4 0 a5.7 5.7 0 1 0 -11.4 0zM852.27 729.8 a5.7 5.7 0 1 0 11.4 0 a5.7 5.7 0 1 0 -11.4 0zM802.91 758.3 a5.7 5.7 0 1 0 11.4 0 a5.7 5.7 0 1 0 -11.4 0zM753.54 729.8 a5.7 5.7 0 1 0 11.4 0 a5.7 5.7 0 1 0 -11.4 0zM753.54 672.8 a5.7 5.7 0 1 0 11.4 0 a5.7 5.7 0 1 0 -11.4 0zM901.64 -39.7 a5.7 5.7 0 1 0 11.4 0 a5.7 5.7 0 1 0 -11.4 0zM951 -11.2 a5.7 5.7 0 1 0 11.4 0 a5.7 5.7 0 1 0 -11.4 0zM951 45.8 a5.7 5.7 0 1 0 11.4 0 a5.7 5.7 0 1 0 -11.4 0zM901.64 74.3 a5.7 5.7 0 1 0 11.4 0 a5.7 5.7 0 1 0 -11.4 0zM951 558.8 a5.7 5.7 0 1 0 11.4 0 a5.7 5.7 0 1 0 -11.4 0zM1000.37 587.3 a5.7 5.7 0 1 0 11.4 0 a5.7 5.7 0 1 0 -11.4 0zM1000.37 644.3 a5.7 5.7 0 1 0 11.4 0 a5.7 5.7 0 1 0 -11.4 0zM951 672.8 a5.7 5.7 0 1 0 11.4 0 a5.7 5.7 0 1 0 -11.4 0zM901.64 644.3 a5.7 5.7 0 1 0 11.4 0 a5.7 5.7 0 1 0 -11.4 0zM901.64 587.3 a5.7 5.7 0 1 0 11.4 0 a5.7 5.7 0 1 0 -11.4 0zM1000.37 -39.7 a5.7 5.7 0 1 0 11.4 0 a5.7 5.7 0 1 0 -11.4 0zM1049.73 -11.2 a5.7 5.7 0 1 0 11.4 0 a5.7 5.7 0 1 0 -11.4 0zM1049.73 45.8 a5.7 5.7 0 1 0 11.4 0 a5.7 5.7 0 1 0 -11.4 0zM1000.37 74.3 a5.7 5.7 0 1 0 11.4 0 a5.7 5.7 0 1 0 -11.4 0zM1000.37 131.3 a5.7 5.7 0 1 0 11.4 0 a5.7 5.7 0 1 0 -11.4 0zM1049.73 159.8 a5.7 5.7 0 1 0 11.4 0 a5.7 5.7 0 1 0 -11.4 0zM1049.73 216.8 a5.7 5.7 0 1 0 11.4 0 a5.7 5.7 0 1 0 -11.4 0zM1000.37 245.3 a5.7 5.7 0 1 0 11.4 0 a5.7 5.7 0 1 0 -11.4 0zM951 216.8 a5.7 5.7 0 1 0 11.4 0 a5.7 5.7 0 1 0 -11.4 0zM951 159.8 a5.7 5.7 0 1 0 11.4 0 a5.7 5.7 0 1 0 -11.4 0zM1148.46 45.8 a5.7 5.7 0 1 0 11.4 0 a5.7 5.7 0 1 0 -11.4 0zM1197.83 74.3 a5.7 5.7 0 1 0 11.4 0 a5.7 5.7 0 1 0 -11.4 0zM1197.83 131.3 a5.7 5.7 0 1 0 11.4 0 a5.7 5.7 0 1 0 -11.4 0zM1148.46 159.8 a5.7 5.7 0 1 0 11.4 0 a5.7 5.7 0 1 0 -11.4 0zM1099.1 131.3 a5.7 5.7 0 1 0 11.4 0 a5.7 5.7 0 1 0 -11.4 0zM1099.1 74.3 a5.7 5.7 0 1 0 11.4 0 a5.7 5.7 0 1 0 -11.4 0zM1099.1 302.3 a5.7 5.7 0 1 0 11.4 0 a5.7 5.7 0 1 0 -11.4 0zM1148.46 330.8 a5.7 5.7 0 1 0 11.4 0 a5.7 5.7 0 1 0 -11.4 0zM1148.46 387.8 a5.7 5.7 0 1 0 11.4 0 a5.7 5.7 0 1 0 -11.4 0zM1099.1 416.3 a5.7 5.7 0 1 0 11.4 0 a5.7 5.7 0 1 0 -11.4 0zM1049.73 387.8 a5.7 5.7 0 1 0 11.4 0 a5.7 5.7 0 1 0 -11.4 0zM1049.73 330.8 a5.7 5.7 0 1 0 11.4 0 a5.7 5.7 0 1 0 -11.4 0zM1247.19 159.8 a5.7 5.7 0 1 0 11.4 0 a5.7 5.7 0 1 0 -11.4 0zM1247.19 216.8 a5.7 5.7 0 1 0 11.4 0 a5.7 5.7 0 1 0 -11.4 0zM1197.83 245.3 a5.7 5.7 0 1 0 11.4 0 a5.7 5.7 0 1 0 -11.4 0zM1148.46 216.8 a5.7 5.7 0 1 0 11.4 0 a5.7 5.7 0 1 0 -11.4 0zM1296.56 -39.7 a5.7 5.7 0 1 0 11.4 0 a5.7 5.7 0 1 0 -11.4 0zM1345.92 -11.2 a5.7 5.7 0 1 0 11.4 0 a5.7 5.7 0 1 0 -11.4 0zM1345.92 45.8 a5.7 5.7 0 1 0 11.4 0 a5.7 5.7 0 1 0 -11.4 0zM1296.56 74.3 a5.7 5.7 0 1 0 11.4 0 a5.7 5.7 0 1 0 -11.4 0zM1247.19 45.8 a5.7 5.7 0 1 0 11.4 0 a5.7 5.7 0 1 0 -11.4 0zM1247.19 -11.2 a5.7 5.7 0 1 0 11.4 0 a5.7 5.7 0 1 0 -11.4 0zM1444.65 45.8 a5.7 5.7 0 1 0 11.4 0 a5.7 5.7 0 1 0 -11.4 0zM1494.02 74.3 a5.7 5.7 0 1 0 11.4 0 a5.7 5.7 0 1 0 -11.4 0zM1494.02 131.3 a5.7 5.7 0 1 0 11.4 0 a5.7 5.7 0 1 0 -11.4 0zM1444.65 159.8 a5.7 5.7 0 1 0 11.4 0 a5.7 5.7 0 1 0 -11.4 0zM1395.29 131.3 a5.7 5.7 0 1 0 11.4 0 a5.7 5.7 0 1 0 -11.4 0zM1395.29 74.3 a5.7 5.7 0 1 0 11.4 0 a5.7 5.7 0 1 0 -11.4 0zM1395.29 473.3 a5.7 5.7 0 1 0 11.4 0 a5.7 5.7 0 1 0 -11.4 0zM1444.65 501.8 a5.7 5.7 0 1 0 11.4 0 a5.7 5.7 0 1 0 -11.4 0zM1444.65 558.8 a5.7 5.7 0 1 0 11.4 0 a5.7 5.7 0 1 0 -11.4 0zM1395.29 587.3 a5.7 5.7 0 1 0 11.4 0 a5.7 5.7 0 1 0 -11.4 0zM1345.92 558.8 a5.7 5.7 0 1 0 11.4 0 a5.7 5.7 0 1 0 -11.4 0zM1345.92 501.8 a5.7 5.7 0 1 0 11.4 0 a5.7 5.7 0 1 0 -11.4 0zM1543.38 45.8 a5.7 5.7 0 1 0 11.4 0 a5.7 5.7 0 1 0 -11.4 0zM1592.75 74.3 a5.7 5.7 0 1 0 11.4 0 a5.7 5.7 0 1 0 -11.4 0zM1592.75 131.3 a5.7 5.7 0 1 0 11.4 0 a5.7 5.7 0 1 0 -11.4 0zM1543.38 159.8 a5.7 5.7 0 1 0 11.4 0 a5.7 5.7 0 1 0 -11.4 0zM1543.38 729.8 a5.7 5.7 0 1 0 11.4 0 a5.7 5.7 0 1 0 -11.4 0zM1592.75 758.3 a5.7 5.7 0 1 0 11.4 0 a5.7 5.7 0 1 0 -11.4 0zM1592.75 815.3 a5.7 5.7 0 1 0 11.4 0 a5.7 5.7 0 1 0 -11.4 0zM1543.38 843.8 a5.7 5.7 0 1 0 11.4 0 a5.7 5.7 0 1 0 -11.4 0zM1494.02 815.3 a5.7 5.7 0 1 0 11.4 0 a5.7 5.7 0 1 0 -11.4 0zM1494.02 758.3 a5.7 5.7 0 1 0 11.4 0 a5.7 5.7 0 1 0 -11.4 0zM1642.11 159.8 a5.7 5.7 0 1 0 11.4 0 a5.7 5.7 0 1 0 -11.4 0zM1642.11 216.8 a5.7 5.7 0 1 0 11.4 0 a5.7 5.7 0 1 0 -11.4 0zM1592.75 245.3 a5.7 5.7 0 1 0 11.4 0 a5.7 5.7 0 1 0 -11.4 0zM1543.38 216.8 a5.7 5.7 0 1 0 11.4 0 a5.7 5.7 0 1 0 -11.4 0zM1691.47 131.3 a5.7 5.7 0 1 0 11.4 0 a5.7 5.7 0 1 0 -11.4 0zM1740.84 159.8 a5.7 5.7 0 1 0 11.4 0 a5.7 5.7 0 1 0 -11.4 0zM1740.84 216.8 a5.7 5.7 0 1 0 11.4 0 a5.7 5.7 0 1 0 -11.4 0zM1691.47 245.3 a5.7 5.7 0 1 0 11.4 0 a5.7 5.7 0 1 0 -11.4 0zM1691.47 473.3 a5.7 5.7 0 1 0 11.4 0 a5.7 5.7 0 1 0 -11.4 0zM1740.84 501.8 a5.7 5.7 0 1 0 11.4 0 a5.7 5.7 0 1 0 -11.4 0zM1740.84 558.8 a5.7 5.7 0 1 0 11.4 0 a5.7 5.7 0 1 0 -11.4 0zM1691.47 587.3 a5.7 5.7 0 1 0 11.4 0 a5.7 5.7 0 1 0 -11.4 0zM1642.11 558.8 a5.7 5.7 0 1 0 11.4 0 a5.7 5.7 0 1 0 -11.4 0zM1642.11 501.8 a5.7 5.7 0 1 0 11.4 0 a5.7 5.7 0 1 0 -11.4 0zM1790.2 302.3 a5.7 5.7 0 1 0 11.4 0 a5.7 5.7 0 1 0 -11.4 0zM1839.57 330.8 a5.7 5.7 0 1 0 11.4 0 a5.7 5.7 0 1 0 -11.4 0zM1839.57 387.8 a5.7 5.7 0 1 0 11.4 0 a5.7 5.7 0 1 0 -11.4 0zM1790.2 416.3 a5.7 5.7 0 1 0 11.4 0 a5.7 5.7 0 1 0 -11.4 0zM1740.84 387.8 a5.7 5.7 0 1 0 11.4 0 a5.7 5.7 0 1 0 -11.4 0zM1740.84 330.8 a5.7 5.7 0 1 0 11.4 0 a5.7 5.7 0 1 0 -11.4 0zM1839.57 729.8 a5.7 5.7 0 1 0 11.4 0 a5.7 5.7 0 1 0 -11.4 0zM1888.93 758.3 a5.7 5.7 0 1 0 11.4 0 a5.7 5.7 0 1 0 -11.4 0zM1888.93 815.3 a5.7 5.7 0 1 0 11.4 0 a5.7 5.7 0 1 0 -11.4 0zM1839.57 843.8 a5.7 5.7 0 1 0 11.4 0 a5.7 5.7 0 1 0 -11.4 0zM1790.2 815.3 a5.7 5.7 0 1 0 11.4 0 a5.7 5.7 0 1 0 -11.4 0zM1790.2 758.3 a5.7 5.7 0 1 0 11.4 0 a5.7 5.7 0 1 0 -11.4 0zM1888.93 473.3 a5.7 5.7 0 1 0 11.4 0 a5.7 5.7 0 1 0 -11.4 0zM1938.3 501.8 a5.7 5.7 0 1 0 11.4 0 a5.7 5.7 0 1 0 -11.4 0zM1938.3 558.8 a5.7 5.7 0 1 0 11.4 0 a5.7 5.7 0 1 0 -11.4 0zM1888.93 587.3 a5.7 5.7 0 1 0 11.4 0 a5.7 5.7 0 1 0 -11.4 0zM1839.57 558.8 a5.7 5.7 0 1 0 11.4 0 a5.7 5.7 0 1 0 -11.4 0zM1839.57 501.8 a5.7 5.7 0 1 0 11.4 0 a5.7 5.7 0 1 0 -11.4 0zM1938.3 729.8 a5.7 5.7 0 1 0 11.4 0 a5.7 5.7 0 1 0 -11.4 0zM1987.66 758.3 a5.7 5.7 0 1 0 11.4 0 a5.7 5.7 0 1 0 -11.4 0zM1987.66 815.3 a5.7 5.7 0 1 0 11.4 0 a5.7 5.7 0 1 0 -11.4 0zM1938.3 843.8 a5.7 5.7 0 1 0 11.4 0 a5.7 5.7 0 1 0 -11.4 0z" fill="#fff"></path>
        <path d="M61.46 82.92L117.76 115.42L117.76 180.42L61.46 212.92L5.17 180.42L5.17 115.42zM5.17 375.42L61.46 407.92L61.46 472.92L5.17 505.42L-51.12 472.92L-51.12 407.92zM61.46 667.92L117.76 700.42L117.76 765.42L61.46 797.92L5.17 765.42L5.17 700.42zM5.17 765.42L61.46 797.92L61.46 862.92L5.17 895.42L-51.12 862.92L-51.12 797.92zM117.76 -14.58L174.05 17.92L174.05 82.92L117.76 115.42L61.46 82.92L61.46 17.92zM174.05 472.92L230.34 505.42L230.34 570.42L174.05 602.92L117.76 570.42L117.76 505.42zM117.76 570.42L174.05 602.92L174.05 667.92L117.76 700.42L61.46 667.92L61.46 602.92zM230.34 -14.58L286.64 17.92L286.64 82.92L230.34 115.42L174.05 82.92L174.05 17.92zM286.64 82.92L342.93 115.42L342.93 180.42L286.64 212.92L230.34 180.42L230.34 115.42zM230.34 180.42L286.64 212.92L286.64 277.92L230.34 310.42L174.05 277.92L174.05 212.92zM286.64 472.92L342.93 505.42L342.93 570.42L286.64 602.92L230.34 570.42L230.34 505.42zM286.64 667.92L342.93 700.42L342.93 765.42L286.64 797.92L230.34 765.42L230.34 700.42zM342.93 -14.58L399.22 17.92L399.22 82.92L342.93 115.42L286.64 82.92L286.64 17.92zM399.22 82.92L455.52 115.42L455.52 180.42L399.22 212.92L342.93 180.42L342.93 115.42zM455.52 -14.58L511.81 17.92L511.81 82.92L455.52 115.42L399.22 82.92L399.22 17.92zM511.81 82.92L568.1 115.42L568.1 180.42L511.81 212.92L455.52 180.42L455.52 115.42zM455.52 180.42L511.81 212.92L511.81 277.92L455.52 310.42L399.22 277.92L399.22 212.92zM455.52 375.42L511.81 407.92L511.81 472.92L455.52 505.42L399.22 472.92L399.22 407.92zM455.52 570.42L511.81 602.92L511.81 667.92L455.52 700.42L399.22 667.92L399.22 602.92zM511.81 667.92L568.1 700.42L568.1 765.42L511.81 797.92L455.52 765.42L455.52 700.42zM568.1 -14.58L624.4 17.92L624.4 82.92L568.1 115.42L511.81 82.92L511.81 17.92zM568.1 180.42L624.4 212.92L624.4 277.92L568.1 310.42L511.81 277.92L511.81 212.92zM736.98 82.92L793.28 115.42L793.28 180.42L736.98 212.92L680.69 180.42L680.69 115.42zM793.28 -14.58L849.57 17.92L849.57 82.92L793.28 115.42L736.98 82.92L736.98 17.92zM849.57 82.92L905.86 115.42L905.86 180.42L849.57 212.92L793.28 180.42L793.28 115.42zM793.28 180.42L849.57 212.92L849.57 277.92L793.28 310.42L736.98 277.92L736.98 212.92zM849.57 472.92L905.86 505.42L905.86 570.42L849.57 602.92L793.28 570.42L793.28 505.42zM849.57 667.92L905.86 700.42L905.86 765.42L849.57 797.92L793.28 765.42L793.28 700.42zM905.86 180.42L962.16 212.92L962.16 277.92L905.86 310.42L849.57 277.92L849.57 212.92zM962.16 277.92L1018.45 310.42L1018.45 375.42L962.16 407.92L905.86 375.42L905.86 310.42zM905.86 375.42L962.16 407.92L962.16 472.92L905.86 505.42L849.57 472.92L849.57 407.92zM962.16 667.92L1018.45 700.42L1018.45 765.42L962.16 797.92L905.86 765.42L905.86 700.42zM905.86 765.42L962.16 797.92L962.16 862.92L905.86 895.42L849.57 862.92L849.57 797.92zM1018.45 -14.58L1074.74 17.92L1074.74 82.92L1018.45 115.42L962.16 82.92L962.16 17.92zM1074.74 82.92L1131.04 115.42L1131.04 180.42L1074.74 212.92L1018.45 180.42L1018.45 115.42zM1018.45 570.42L1074.74 602.92L1074.74 667.92L1018.45 700.42L962.16 667.92L962.16 602.92zM1074.74 667.92L1131.04 700.42L1131.04 765.42L1074.74 797.92L1018.45 765.42L1018.45 700.42zM1131.04 180.42L1187.33 212.92L1187.33 277.92L1131.04 310.42L1074.74 277.92L1074.74 212.92zM1187.33 472.92L1243.62 505.42L1243.62 570.42L1187.33 602.92L1131.04 570.42L1131.04 505.42zM1131.04 570.42L1187.33 602.92L1187.33 667.92L1131.04 700.42L1074.74 667.92L1074.74 602.92zM1412.5 277.92L1468.79 310.42L1468.79 375.42L1412.5 407.92L1356.21 375.42L1356.21 310.42zM1412.5 472.92L1468.79 505.42L1468.79 570.42L1412.5 602.92L1356.21 570.42L1356.21 505.42zM1356.21 765.42L1412.5 797.92L1412.5 862.92L1356.21 895.42L1299.91 862.92L1299.91 797.92zM1468.79 180.42L1525.09 212.92L1525.09 277.92L1468.79 310.42L1412.5 277.92L1412.5 212.92zM1525.09 277.92L1581.38 310.42L1581.38 375.42L1525.09 407.92L1468.79 375.42L1468.79 310.42zM1525.09 472.92L1581.38 505.42L1581.38 570.42L1525.09 602.92L1468.79 570.42L1468.79 505.42zM1468.79 570.42L1525.09 602.92L1525.09 667.92L1468.79 700.42L1412.5 667.92L1412.5 602.92zM1581.38 -14.58L1637.67 17.92L1637.67 82.92L1581.38 115.42L1525.09 82.92L1525.09 17.92zM1637.67 82.92L1693.97 115.42L1693.97 180.42L1637.67 212.92L1581.38 180.42L1581.38 115.42zM1581.38 180.42L1637.67 212.92L1637.67 277.92L1581.38 310.42L1525.09 277.92L1525.09 212.92zM1581.38 570.42L1637.67 602.92L1637.67 667.92L1581.38 700.42L1525.09 667.92L1525.09 602.92zM1637.67 667.92L1693.97 700.42L1693.97 765.42L1637.67 797.92L1581.38 765.42L1581.38 700.42zM1581.38 765.42L1637.67 797.92L1637.67 862.92L1581.38 895.42L1525.09 862.92L1525.09 797.92zM1693.97 375.42L1750.26 407.92L1750.26 472.92L1693.97 505.42L1637.67 472.92L1637.67 407.92zM1693.97 570.42L1750.26 602.92L1750.26 667.92L1693.97 700.42L1637.67 667.92L1637.67 602.92zM1750.26 667.92L1806.55 700.42L1806.55 765.42L1750.26 797.92L1693.97 765.42L1693.97 700.42zM1693.97 765.42L1750.26 797.92L1750.26 862.92L1693.97 895.42L1637.67 862.92L1637.67 797.92zM1862.85 82.92L1919.14 115.42L1919.14 180.42L1862.85 212.92L1806.55 180.42L1806.55 115.42zM1862.85 277.92L1919.14 310.42L1919.14 375.42L1862.85 407.92L1806.55 375.42L1806.55 310.42zM1806.55 570.42L1862.85 602.92L1862.85 667.92L1806.55 700.42L1750.26 667.92L1750.26 602.92zM1919.14 -14.58L1975.43 17.92L1975.43 82.92L1919.14 115.42L1862.85 82.92L1862.85 17.92zM1919.14 180.42L1975.43 212.92L1975.43 277.92L1919.14 310.42L1862.85 277.92L1862.85 212.92zM1975.43 277.92L2031.73 310.42L2031.73 375.42L1975.43 407.92L1919.14 375.42L1919.14 310.42zM1975.43 667.92L2031.73 700.42L2031.73 765.42L1975.43 797.92L1919.14 765.42L1919.14 700.42zM1919.14 765.42L1975.43 797.92L1975.43 862.92L1919.14 895.42L1862.85 862.92L1862.85 797.92z" stroke="rgba(255, 255, 255, 0.93)" stroke-width="2"></path>
    </g>
    <defs>
        <mask id="SvgjsMask1163">
            <rect width="1920" height="800" fill="#ffffff"></rect>
        </mask>
    </defs>
</svg>
