<svg xmlns="http://www.w3.org/2000/svg" version="1.1" xmlns:xlink="http://www.w3.org/1999/xlink" xmlns:svgjs="http://svgjs.com/svgjs" width="1440" height="560" preserveAspectRatio="none" viewBox="0 0 1440 560">
    <g mask="url(&quot;#SvgjsMask1083&quot;)" fill="none">
        <path d="M -263.7026710927624,435 C -119.7,365.4 168.3,105.2 456.2973289072376,87 C 744.3,68.8 888.3,316.8 1176.2973289072377,344 C 1464.3,371.2 1843.56,197.4 1896.2973289072377,223 C 1949.04,248.6 1531.26,422.2 1440,472" stroke="rgba(74, 94, 155, 0.29)" stroke-width="2"></path>
        <path d="M -140.66290200598837,361 C 3.34,336.2 291.34,252.2 579.3370979940116,237 C 867.34,221.8 1011.34,293.4 1299.3370979940116,285 C 1587.34,276.6 1991.2,181.6 2019.3370979940116,195 C 2047.47,208.4 1555.87,320.6 1440,352" stroke="rgba(74, 94, 155, 0.29)" stroke-width="2"></path>
        <path d="M -697.7137824859394,67 C -553.71,148.8 -265.71,461.8 22.28621751406056,476 C 310.29,490.2 454.29,146.8 742.2862175140606,138 C 1030.29,129.2 1322.74,446 1462.2862175140606,432 C 1601.83,418 1444.46,140.8 1440,68" stroke="rgba(74, 94, 155, 0.29)" stroke-width="2"></path>
        <path d="M -583.6393022310754,494 C -439.64,417.2 -151.64,113.4 136.3606977689246,110 C 424.36,106.6 568.36,478.6 856.3606977689246,477 C 1144.36,475.4 1459.63,106.2 1576.3606977689246,102 C 1693.09,97.8 1467.27,385.2 1440,456" stroke="rgba(74, 94, 155, 0.29)" stroke-width="2"></path>
    </g>
    <defs>
        <mask id="SvgjsMask1083">
            <rect width="1440" height="560" fill="#ffffff"></rect>
        </mask>
    </defs>
</svg>
